# xmcd CD database file
#
# Track frame offsets:
#	150
#	17020
#	42047
#	72272
#	100377
#	107860
#	127445
#	144895
#	152125
#	161967
#	169472
#
# Disc length: 3199 seconds
#
# Revision: 0
# Processed by: cddbd v1.5.1PL0 Copyright (c) Steve Scherf et al.
# Submitted via: CDex 1.50beta8
#
DISCID=9e0c7d0b
DTITLE=Voice Of Destruction - Bloedrivier
DYEAR=1995
DGENRE=Rock
TTITLE0=Bloedrivier
TTITLE1=Doom
TTITLE2=A Beast Is Born
TTITLE3=Funeral
TTITLE4=Vir Zoe
TTITLE5=Religion
TTITLE6=If I Had A Soul Pt. 3
TTITLE7=Goodbye
TTITLE8=J.M.S.P.
TTITLE9=Ring Of Brodgar
TTITLE10=Needledive
EXTD=YEAR: 1995
EXTT0=
EXTT1=
EXTT2=
EXTT3=
EXTT4=
EXTT5=
EXTT6=
EXTT7=
EXTT8=
EXTT9=
EXTT10=
PLAYORDER=
